<?xml version="1.0" encoding="UTF-8"?>
<svg id="Layer_2" data-name="Layer 2" xmlns="http://www.w3.org/2000/svg" xmlns:xlink="http://www.w3.org/1999/xlink" viewBox="0 0 408.61 161.53">
  <defs>
    <style>
      .cls-1 {
        fill: url(#linear-gradient);
      }

      .cls-1, .cls-2, .cls-3, .cls-4, .cls-5, .cls-6, .cls-7 {
        stroke-width: 0px;
      }

      .cls-8, .cls-9 {
        stroke: #3a1802;
        stroke-miterlimit: 10;
      }

      .cls-8, .cls-6 {
        fill: #fffff2;
      }

      .cls-9, .cls-3 {
        fill: #3a1802;
      }

      .cls-2 {
        fill: #731d06;
      }

      .cls-4 {
        fill: #310103;
      }

      .cls-5 {
        fill: #ff741d;
      }

      .cls-7 {
        fill: #f23216;
      }
    </style>
    <linearGradient id="linear-gradient" x1="205.52" y1="112.65" x2="205.52" y2="161.53" gradientUnits="userSpaceOnUse">
      <stop offset="0" stop-color="#708d93"/>
      <stop offset=".16" stop-color="#99adae"/>
      <stop offset=".33" stop-color="#bdcac6"/>
      <stop offset=".5" stop-color="#dae1d9"/>
      <stop offset=".67" stop-color="#eef1e7"/>
      <stop offset=".84" stop-color="#fafbef"/>
      <stop offset="1" stop-color="#fffff2"/>
    </linearGradient>
  </defs>
  <g id="shadow">
    <path class="cls-6" d="M77.16,45.07c-1.91,5.08-13.34,6.03-17.23,2.59.08-.37,0-12.12,0-12.12-4.44-6.53-11.1-10.25-17.38-9.39-5.98.83-12.29,5.91-13.04,11.6-1.91,11.44,38.12,33.35,45.74,47.65,12.39,20.97-.32,37.42-.32,37.42,0,0-6.35,10.23-22.13,15.62-29.96,8.91-48.07-14.92-48.07-29.21s5.72-24.78,16.2-27.64c10.48-2.86,18.11,8.58,18.11,12.39-4.76,3.81-14.29,8.58-10.48,16.2.95,12.39,30.49,15.25,29.54-6.67-.95-18.11-40.98-31.45-49.55-54.32C.92,22.52,27.6,3.46,44.76,6.32c13.34,1.91,14.29,6.67,19.06,6.67,0-3.81,2.86-3.81,2.86-3.81h7.79c1.74,0,2.7,0,2.7,5.72v30.18Z"/>
    <path class="cls-6" d="M86.69,33.95c3.81,3.81,10.48-8.58,12.39-12.39s1.91-11.44-3.81-13.34c-3.81-1.91-9.53.95-10.48,3.81-.95,2.86-.95,5.72,3.81,12.39-3.81,7.62-1.91,9.53-1.91,9.53Z"/>
    <path class="cls-6" d="M116.4,99.76c.01,2.86-13.33,2.91-13.34.05l-.33-89.58s-.96-1.9,3.8-1.92l10.28-.04,13.68,36.16,13.21-35.31,12.39-.05c1.91,0,2.86-.01,2.87,1.9.01,2.86.31,84.46.33,87.49s-14.28,4.04-14.29.23.27-43.65.05-43.72-13.29,36.14-13.42,36.14-14.44-37.05-15.39-37.11.17,45.74.17,45.74Z"/>
    <path class="cls-6" d="M326.83,92.94c-.95-.86-15.25-27.54-15.25-27.54,0,0,14.29-8.58,14.29-19.06s2.86-16.2-10.48-30.49c-5.72-7.62-17.68-6.07-17.41-6.37.26-.3-29.28,0-29.28,0,0,0-6.67,3.51,0,10.18v78.16s0,1.89,2.86,1.89h13.9s3.25,0,3.25-1.91v-30.33h4.76l20.01,37.96s3.88,3.79,7.66,0c3.79-3.79,5.68-6.67,5.68-6.67,0,0,.95-4.96,0-5.81ZM299.54,55.1h-11.78v-31.63h10.4c14.38,0,13.43,31.63,1.38,31.63Z"/>
    <path class="cls-6" d="M334.07,9.34c.28-.28-8.19,4.6,1.34,11.27,0,0,.62,20.97.84,35.26.11,0-7.51,1.91-7.51,7.62.95,6.67,7.51,7.43,7.51,7.43-.84,6.86-.84,51.65-.84,51.65,0,0-2.97,1.55-2.91,6.49-1.85,5.9,74.49,13.64,75.34,12.57s0-13.11,0-16.56c-1.91-3.45-45.74-7.26-52.41-7.26,0-2.86,0-35.26,0-35.26,0,0,33.35-.95,40.02-.95s6.67-17.15,0-17.15-40.98-.95-40.98-.95V27.28h48.6s12.45-12.08.03-17.95c-13.37-.16-69.03.01-69.03.01Z"/>
    <path class="cls-6" d="M256.38,37.8c-10.56-34.23-52.51-44.18-76.1-18-5.63,6.25-9.94,13.34-10.77,20.86-2.78,25.19,0,37.78,7.42,48.44-3.71,7.75,0,10.66,5.56,12.59.93,3.88.93,7.75.93,7.75h56.47v-7.13s8.43-3.52,8.43-7.4c0-1.94-.93-4.56,0-4.7s17.61-25.33,8.34-51.49c-.09-.31-.19-.62-.28-.92Z"/>
    <path class="cls-1" d="M320.67,120.5c-57.45-11.91-192.77-9.05-231.84.48-2.86.95-1.91,10.48-1.91,10.48-2.86,2.86,46.69-3.81,53.37-3.81.95,4.76,0,18.11,0,18.11,8.58,2.86,41.93,10.59,66.23,15.78,24.3-4.34,63.37-15.78,63.37-15.78v-18.11s42.03,1.99,54.37,4.81c-.05-7.67.5-11.48-3.59-11.95Z"/>
  </g>
  <g id="Layer_6" data-name="Layer 6">
    <path class="cls-4" d="M72.42,39.04c-1.91,5.08-13.34,6.03-17.23,2.59.08-.37,0-12.12,0-12.12-4.44-6.53-11.1-10.25-17.38-9.39-5.98.83-12.29,5.91-13.04,11.6-1.91,11.44,38.12,33.35,45.74,47.65,12.39,20.97-.32,37.42-.32,37.42,0,0-6.35,10.23-22.13,15.62C18.11,141.32,0,117.5,0,103.2s5.72-24.78,16.2-27.64c10.48-2.86,18.11,8.58,18.11,12.39-4.76,3.81-14.29,8.58-10.48,16.2.95,12.39,30.49,15.25,29.54-6.67-.95-18.11-40.98-31.45-49.55-54.32C-3.81,16.48,22.87-2.58,40.02.28c13.34,1.91,14.29,6.67,19.06,6.67,0-3.81,2.86-3.81,2.86-3.81h7.79c1.74,0,2.7,0,2.7,5.72v30.18Z"/>
    <path class="cls-4" d="M81.95,27.92c3.81,3.81,10.48-8.58,12.39-12.39s1.91-11.44-3.81-13.34c-3.81-1.91-9.53.95-10.48,3.81-.95,2.86-.95,5.72,3.81,12.39-3.81,7.62-1.91,9.53-1.91,9.53Z"/>
    <path class="cls-4" d="M111.66,93.73c.01,2.86-13.33,2.91-13.34.05l-.33-89.58s-.96-1.9,3.8-1.92l10.28-.04,13.68,36.16,13.21-35.31,12.39-.05c1.91,0,2.86-.01,2.87,1.9.01,2.86.31,84.46.33,87.49s-14.28,4.04-14.29.23.27-43.65.05-43.72-13.29,36.14-13.42,36.14-14.44-37.05-15.39-37.11.17,45.74.17,45.74Z"/>
    <path class="cls-4" d="M251.82,35.04C241.26.82,199.31-9.14,175.72,17.04c-5.63,6.25-9.94,13.34-10.77,20.86-2.78,25.19,0,37.78,7.42,48.44-3.71,7.75,0,10.66,5.56,12.59.93,3.88.93,7.75.93,7.75h56.47v-7.13s8.43-3.52,8.43-7.4c0-1.94-.93-4.56,0-4.7s17.61-25.33,8.34-51.49c-.09-.31-.19-.62-.28-.92Z"/>
    <path class="cls-4" d="M322.1,86.91c-.95-.86-15.25-27.54-15.25-27.54,0,0,14.29-8.58,14.29-19.06s2.86-16.2-10.48-30.49c-5.72-7.62-17.68-6.07-17.41-6.37.26-.3-29.28,0-29.28,0,0,0-6.67,3.51,0,10.18v78.16s0,1.89,2.86,1.89h13.9s3.25,0,3.25-1.91v-30.33h4.76l20.01,37.96s3.88,3.79,7.66,0c3.79-3.79,5.68-6.67,5.68-6.67,0,0,.95-4.96,0-5.81ZM294.8,49.07h-11.78v-31.63h10.4c14.38,0,13.43,31.63,1.38,31.63Z"/>
    <path class="cls-4" d="M329.33,3.31c.28-.28-8.19,4.6,1.34,11.27,0,0,.62,20.97.84,35.26.11,0-7.51,1.91-7.51,7.62.95,6.67,7.51,7.43,7.51,7.43-.84,6.86-.84,51.65-.84,51.65,0,0-2.97,1.55-2.91,6.49-1.85,5.9,74.49,13.64,75.34,12.57s0-13.11,0-16.56c-1.91-3.45-45.74-7.26-52.41-7.26,0-2.86,0-35.26,0-35.26,0,0,33.35-.95,40.02-.95s6.67-17.15,0-17.15-40.98-.95-40.98-.95V21.25h48.6s12.45-12.08.03-17.95c-13.37-.16-69.03.01-69.03.01Z"/>
  </g>
  <g id="Character_fill" data-name="Character fill">
    <g>
      <path class="cls-3" d="M318.93,115.47c-57.45-11.91-192.77-9.05-231.84.48-2.86.95-1.91,10.48-1.91,10.48-2.86,2.86,46.69-3.81,53.37-3.81.95,4.76,0,18.11,0,18.11,8.58,2.86,41.93,10.59,66.23,15.78,24.3-4.34,63.37-15.78,63.37-15.78v-18.11s42.03,1.99,54.37,4.81c-.05-7.67.5-11.48-3.59-11.95Z"/>
      <path class="cls-3" d="M218.47,26.35l12.04,15.27-.95,15.25-9.53,11.44-12.39,2.86-13.34-4.76-9.53-14.29,8.58-20.01,7.62-8.58.95-3.29v-8.15s.95-4.29,2.86-6.19,0,.95.95,4.29c-.95,3.81,3,6.65,3,6.65l9.73,9.52Z"/>
      <path class="cls-3" d="M210.5,13.5c-2.12-1.31,1.16-6.32-.12-10.51-8.45,6.7-4.43,12.77-1.15,14.9s19.59,17.88,18.64,29.31c.9,8.07-5.8,14.46-10.57,19.15,2.51-4.09,3.69-13.79.83-18.55-2.12,12.04-8.58,7.62-10.48,12.39-1.91,4.76-3.92-8.7-4.23-11.75-.54-5.4-2.87,2.68-4.14,9.24-.95,4.76.95,9.53.95,9.53,0,0-13.34-7.62-13.34-16.2-1.82-8.46,13.55-21.57,15.25-28.59,1.7-7.02-.95-13.34.95-15.25-.21-1.31,3.07-5.37-1.91-.95-4.97,4.41,0,17.15-4.97,20.61-4.97,3.46-13.55,13.94-13.34,24.78,3.6,15.85,10.69,16.55,10.69,16.55,14.08,5.37,26.68,1.91,26.68,1.91,12.18-10.84,12.18-15.6,11.23-26.08-.54-10.93-13.34-20.97-20.97-30.49Z"/>
      <path class="cls-3" d="M189.74,96.76v3.81l-10.48-1.91v-.38s-7.62-3.43-7.62-5.34c0,0,0-3.81,1.91-4.76l16.2,8.58Z"/>
      <path class="cls-3" d="M233.58,99.62c.09.09.15.19.22.32l-7.84-.32.26-4.05,14.04-7.61,1.91,3.09c.95,4.76,0,3.81-8.58,8.58Z"/>
      <path class="cls-3" d="M240.24,87.95l-14.03,7.62-.26,4.05,7.84.32c.7,1.41.49,5.4.49,5.4h-55.02v-6.68l10.48,1.91v-3.81l-16.2-8.58s3.81-14.29,13.34-19.06h6.67c14.29,6.67,26.68,1.91,26.68,1.91,7.63-.95,7.63-3.81,20.01,13.34.96,2.86,0,3.58,0,3.58Z"/>
      <polyline class="cls-3" points="191.59 78.94 189.89 96.21 190.74 105.82 192.89 105.34 192.89 89.69 191.59 78.94"/>
      <polyline class="cls-3" points="224.19 78.67 225.89 95.93 225.04 105.54 222.89 105.07 222.89 89.42 224.19 78.67"/>
    </g>
    <g>
      <path class="cls-3" d="M318.93,115.47c-57.45-11.91-192.77-9.05-231.84.48-2.86.95-1.91,10.48-1.91,10.48-2.86,2.86,46.69-3.81,53.37-3.81.95,4.76,0,18.11,0,18.11,8.58,2.86,41.93,10.59,66.23,15.78,24.3-4.34,63.37-15.78,63.37-15.78v-18.11s42.03,1.99,54.37,4.81c-.05-7.67.5-11.48-3.59-11.95Z"/>
      <path class="cls-7" d="M218.47,26.35l12.04,15.27-.95,15.25-9.53,11.44-12.39,2.86-13.34-4.76-9.53-14.29,8.58-20.01,7.62-8.58.95-3.29v-8.15s.95-4.29,2.86-6.19,0,.95.95,4.29c-.95,3.81,3,6.65,3,6.65l9.73,9.52Z"/>
      <path class="cls-6" d="M210.5,13.5c-2.12-1.31,1.16-6.32-.12-10.51-8.45,6.7-4.43,12.77-1.15,14.9s19.59,17.88,18.64,29.31c.9,8.07-5.8,14.46-10.57,19.15,2.51-4.09,3.69-13.79.83-18.55-2.12,12.04-8.58,7.62-10.48,12.39-1.91,4.76-3.92-8.7-4.23-11.75-.54-5.4-2.87,2.68-4.14,9.24-.95,4.76.95,9.53.95,9.53,0,0-13.34-7.62-13.34-16.2-1.82-8.46,13.55-21.57,15.25-28.59,1.7-7.02-.95-13.34.95-15.25-.21-1.31,3.07-5.37-1.91-.95-4.97,4.41,0,17.15-4.97,20.61-4.97,3.46-13.55,13.94-13.34,24.78,3.6,15.85,10.69,16.55,10.69,16.55,14.08,5.37,26.68,1.91,26.68,1.91,12.18-10.84,12.18-15.6,11.23-26.08-.54-10.93-13.34-20.97-20.97-30.49Z"/>
      <path class="cls-2" d="M189.74,96.76v3.81l-10.48-1.91v-.38s-7.62-3.43-7.62-5.34c0,0,0-3.81,1.91-4.76l16.2,8.58Z"/>
      <path class="cls-2" d="M233.58,99.62c.09.09.15.19.22.32l-7.84-.32.26-4.05,14.04-7.61,1.91,3.09c.95,4.76,0,3.81-8.58,8.58Z"/>
      <path class="cls-5" d="M240.24,87.95l-14.03,7.62-.26,4.05,7.84.32c.7,1.41.49,5.4.49,5.4h-55.02v-6.68l10.48,1.91v-3.81l-16.2-8.58s3.81-14.29,13.34-19.06h6.67c14.29,6.67,26.68,1.91,26.68,1.91,7.63-.95,7.63-3.81,20.01,13.34.96,2.86,0,3.58,0,3.58Z"/>
      <polyline class="cls-9" points="191.59 78.94 189.89 96.21 190.74 105.82 192.89 105.34 192.89 89.69 191.59 78.94"/>
      <polyline class="cls-9" points="224.19 78.67 225.89 95.93 225.04 105.54 222.89 105.07 222.89 89.42 224.19 78.67"/>
    </g>
  </g>
  <g id="Layer_11" data-name="Layer 11">
    <path class="cls-6" d="M221.14,80.4c.99,7.71,1.27,15.58,0,23.27-.08-6.88-.38-16.48,0-23.27h0Z"/>
    <path class="cls-6" d="M194.55,79.52c.05,3.96-.12,7.89-.24,11.83-.02,3.91-.54,7.88.24,11.74-1.55-3.69-1.25-7.86-1.24-11.77.15-3.95.5-7.9,1.24-11.79h0Z"/>
    <path class="cls-6" d="M186.46,71.18c-4.03,4.95-8.23,10.16-10.76,16.06,1.27-6.47,5.7-12.02,10.76-16.06h0Z"/>
    <path class="cls-6" d="M227.44,73.21c4.71,2.87,8.88,7.02,11.12,12.12-3.44-4.37-7.25-8.14-11.12-12.12h0Z"/>
  </g>
  <g id="Outline">
    <polygon class="cls-8" points="176.97 140.24 171.53 140.24 171.53 118.8 187.62 118.8 187.62 124.39 176.48 124.39 176.48 128.22 185.51 128.22 185.51 132.4 176.48 132.4 176.97 140.24"/>
    <path class="cls-8" d="M196.2,118.8h5.82v12.83c0,3.37,7.18,3.3,7.18,0v-12.83h5.1v13.87c0,9.95-18.11,10.36-18.11.63v-14.5Z"/>
    <polygon class="cls-8" points="222.14 138.34 222.14 119.92 224.45 119.92 236.23 129.59 236.23 118.8 242.02 118.8 242.02 140.38 237.63 140.38 227.11 129.86 227.11 138.34 222.14 138.34"/>
  </g>
</svg>